<mxfile host="app.diagrams.net" modified="2024-03-07T20:17:28.391Z" agent="Mozilla/5.0 (Windows NT 10.0; Win64; x64) AppleWebKit/537.36 (KHTML, like Gecko) Chrome/93.0.4577.82 Safari/537.36" etag="nVs0CN6PRL0uT51-unPl" version="22.1.19" type="github">
  <diagram name="Página-1" id="nPnS-npcXqcOk9-AM_7p">
    <mxGraphModel dx="2261" dy="764" grid="1" gridSize="10" guides="1" tooltips="1" connect="1" arrows="1" fold="1" page="1" pageScale="1" pageWidth="827" pageHeight="1169" math="0" shadow="0">
      <root>
        <mxCell id="0" />
        <mxCell id="1" parent="0" />
        <mxCell id="geifvfFEWeNei55oTGaf-8" value="" style="rounded=0;whiteSpace=wrap;html=1;dashed=1;fillColor=none;strokeWidth=2;" vertex="1" parent="1">
          <mxGeometry x="-10" y="390" width="480" height="300" as="geometry" />
        </mxCell>
        <mxCell id="geifvfFEWeNei55oTGaf-1" value="Teradata" style="shape=cylinder3;whiteSpace=wrap;html=1;boundedLbl=1;backgroundOutline=1;size=15;verticalAlign=top;" vertex="1" parent="1">
          <mxGeometry x="-10" y="20" width="150" height="270" as="geometry" />
        </mxCell>
        <mxCell id="geifvfFEWeNei55oTGaf-2" value="Variables SISCOR" style="text;strokeColor=#d6b656;align=center;fillColor=#fff2cc;html=1;verticalAlign=middle;whiteSpace=wrap;rounded=0;" vertex="1" parent="1">
          <mxGeometry x="40" y="80" width="60" height="30" as="geometry" />
        </mxCell>
        <mxCell id="geifvfFEWeNei55oTGaf-3" value="Variables MUIV" style="text;strokeColor=#d6b656;align=center;fillColor=#fff2cc;html=1;verticalAlign=middle;whiteSpace=wrap;rounded=0;" vertex="1" parent="1">
          <mxGeometry x="40" y="120" width="60" height="30" as="geometry" />
        </mxCell>
        <mxCell id="geifvfFEWeNei55oTGaf-4" value="Score de Cumplimiento Tributario" style="text;strokeColor=#d6b656;align=center;fillColor=#fff2cc;html=1;verticalAlign=middle;whiteSpace=wrap;rounded=0;" vertex="1" parent="1">
          <mxGeometry x="20" y="160" width="80" height="50" as="geometry" />
        </mxCell>
        <mxCell id="geifvfFEWeNei55oTGaf-11" style="edgeStyle=orthogonalEdgeStyle;rounded=0;orthogonalLoop=1;jettySize=auto;html=1;" edge="1" parent="1" source="geifvfFEWeNei55oTGaf-26" target="geifvfFEWeNei55oTGaf-6">
          <mxGeometry relative="1" as="geometry">
            <Array as="points">
              <mxPoint x="267" y="590" />
              <mxPoint x="315" y="590" />
            </Array>
          </mxGeometry>
        </mxCell>
        <mxCell id="geifvfFEWeNei55oTGaf-27" style="edgeStyle=orthogonalEdgeStyle;rounded=0;orthogonalLoop=1;jettySize=auto;html=1;" edge="1" parent="1" source="geifvfFEWeNei55oTGaf-5" target="geifvfFEWeNei55oTGaf-1">
          <mxGeometry relative="1" as="geometry">
            <Array as="points">
              <mxPoint x="270" y="340" />
              <mxPoint x="65" y="340" />
            </Array>
          </mxGeometry>
        </mxCell>
        <mxCell id="geifvfFEWeNei55oTGaf-5" value="Datastage&lt;br&gt;" style="shape=cube;whiteSpace=wrap;html=1;boundedLbl=1;backgroundOutline=1;darkOpacity=0.05;darkOpacity2=0.1;size=10;fillColor=#d5e8d4;strokeColor=#82b366;verticalAlign=top;" vertex="1" parent="1">
          <mxGeometry x="130" y="480" width="165" height="80" as="geometry" />
        </mxCell>
        <mxCell id="geifvfFEWeNei55oTGaf-6" value="Ecosistema&lt;br&gt;Big data" style="shape=cube;whiteSpace=wrap;html=1;boundedLbl=1;backgroundOutline=1;darkOpacity=0.05;darkOpacity2=0.1;size=10;fillColor=#d5e8d4;strokeColor=#82b366;" vertex="1" parent="1">
          <mxGeometry x="270" y="620" width="90" height="50" as="geometry" />
        </mxCell>
        <mxCell id="geifvfFEWeNei55oTGaf-9" value="&lt;b&gt;SIGER&lt;/b&gt;" style="text;strokeColor=none;align=center;fillColor=none;html=1;verticalAlign=middle;whiteSpace=wrap;rounded=0;" vertex="1" parent="1">
          <mxGeometry x="10" y="360" width="60" height="30" as="geometry" />
        </mxCell>
        <mxCell id="geifvfFEWeNei55oTGaf-13" value="SFTP" style="shape=cube;whiteSpace=wrap;html=1;boundedLbl=1;backgroundOutline=1;darkOpacity=0.05;darkOpacity2=0.1;size=10;fillColor=#d5e8d4;strokeColor=#82b366;verticalAlign=top;" vertex="1" parent="1">
          <mxGeometry x="10" y="480" width="90" height="70" as="geometry" />
        </mxCell>
        <mxCell id="geifvfFEWeNei55oTGaf-14" style="edgeStyle=orthogonalEdgeStyle;rounded=0;orthogonalLoop=1;jettySize=auto;html=1;" edge="1" parent="1" source="geifvfFEWeNei55oTGaf-17" target="geifvfFEWeNei55oTGaf-19">
          <mxGeometry relative="1" as="geometry">
            <Array as="points">
              <mxPoint x="80" y="560" />
              <mxPoint x="60" y="560" />
            </Array>
          </mxGeometry>
        </mxCell>
        <mxCell id="geifvfFEWeNei55oTGaf-24" style="edgeStyle=orthogonalEdgeStyle;rounded=0;orthogonalLoop=1;jettySize=auto;html=1;" edge="1" parent="1" source="geifvfFEWeNei55oTGaf-15" target="geifvfFEWeNei55oTGaf-23">
          <mxGeometry relative="1" as="geometry" />
        </mxCell>
        <mxCell id="geifvfFEWeNei55oTGaf-15" value="Weblogic" style="shape=cube;whiteSpace=wrap;html=1;boundedLbl=1;backgroundOutline=1;darkOpacity=0.05;darkOpacity2=0.1;size=10;fillColor=#d5e8d4;strokeColor=#82b366;" vertex="1" parent="1">
          <mxGeometry x="145" y="410" width="90" height="50" as="geometry" />
        </mxCell>
        <mxCell id="geifvfFEWeNei55oTGaf-16" value="Weblogic 12.1.3 (Modelo 3)&lt;br style=&quot;font-size: 9px;&quot;&gt;Dominio: Negocio Tributario&lt;br style=&quot;font-size: 9px;&quot;&gt;Cluster-AudiTributariaFront" style="text;strokeColor=none;align=center;fillColor=none;html=1;verticalAlign=middle;whiteSpace=wrap;rounded=0;fontSize=9;" vertex="1" parent="1">
          <mxGeometry x="-10" y="400" width="180" height="30" as="geometry" />
        </mxCell>
        <mxCell id="geifvfFEWeNei55oTGaf-17" value="Control-M" style="shape=cube;whiteSpace=wrap;html=1;boundedLbl=1;backgroundOutline=1;darkOpacity=0.05;darkOpacity2=0.1;size=10;fillColor=#d5e8d4;strokeColor=#82b366;" vertex="1" parent="1">
          <mxGeometry x="60" y="590" width="90" height="50" as="geometry" />
        </mxCell>
        <mxCell id="geifvfFEWeNei55oTGaf-18" style="edgeStyle=orthogonalEdgeStyle;rounded=0;orthogonalLoop=1;jettySize=auto;html=1;" edge="1" parent="1" source="geifvfFEWeNei55oTGaf-17" target="geifvfFEWeNei55oTGaf-20">
          <mxGeometry relative="1" as="geometry" />
        </mxCell>
        <mxCell id="geifvfFEWeNei55oTGaf-19" value="" style="sketch=0;pointerEvents=1;shadow=0;dashed=0;html=1;strokeColor=none;labelPosition=center;verticalLabelPosition=bottom;verticalAlign=top;outlineConnect=0;align=center;shape=mxgraph.office.concepts.folder;fillColor=#7FBA42;" vertex="1" parent="1">
          <mxGeometry x="40" y="513" width="30" height="30" as="geometry" />
        </mxCell>
        <mxCell id="geifvfFEWeNei55oTGaf-20" value="" style="sketch=0;pointerEvents=1;shadow=0;dashed=0;html=1;strokeColor=none;labelPosition=center;verticalLabelPosition=bottom;verticalAlign=top;outlineConnect=0;align=center;shape=mxgraph.office.concepts.folder;fillColor=#7FBA42;" vertex="1" parent="1">
          <mxGeometry x="150" y="513" width="30" height="32" as="geometry" />
        </mxCell>
        <mxCell id="geifvfFEWeNei55oTGaf-21" value="OF-Ordenes de Fiscalización" style="text;strokeColor=#d6b656;align=center;fillColor=#fff2cc;html=1;verticalAlign=middle;whiteSpace=wrap;rounded=0;" vertex="1" parent="1">
          <mxGeometry x="20" y="220" width="80" height="50" as="geometry" />
        </mxCell>
        <mxCell id="geifvfFEWeNei55oTGaf-23" value="Informix&lt;br&gt;bd Riesgo&lt;br&gt;&lt;br&gt;infp15s1&lt;br&gt;online p0i_dwho" style="shape=cylinder3;whiteSpace=wrap;html=1;boundedLbl=1;backgroundOutline=1;size=15;" vertex="1" parent="1">
          <mxGeometry x="360" y="465" width="90" height="125" as="geometry" />
        </mxCell>
        <mxCell id="geifvfFEWeNei55oTGaf-25" value="150.50.2.215" style="text;strokeColor=none;align=center;fillColor=none;html=1;verticalAlign=middle;whiteSpace=wrap;rounded=0;fontSize=9;" vertex="1" parent="1">
          <mxGeometry x="10" y="460" width="60" height="30" as="geometry" />
        </mxCell>
        <mxCell id="geifvfFEWeNei55oTGaf-26" value="" style="sketch=0;outlineConnect=0;fontColor=#232F3E;gradientColor=none;fillColor=#232F3D;strokeColor=none;dashed=0;verticalLabelPosition=bottom;verticalAlign=top;align=center;html=1;fontSize=12;fontStyle=0;aspect=fixed;pointerEvents=1;shape=mxgraph.aws4.gear;" vertex="1" parent="1">
          <mxGeometry x="250" y="513" width="33" height="33" as="geometry" />
        </mxCell>
        <mxCell id="geifvfFEWeNei55oTGaf-30" style="edgeStyle=orthogonalEdgeStyle;rounded=0;orthogonalLoop=1;jettySize=auto;html=1;exitX=0.96;exitY=0.65;exitDx=0;exitDy=0;exitPerimeter=0;" edge="1" parent="1" source="geifvfFEWeNei55oTGaf-28" target="geifvfFEWeNei55oTGaf-15">
          <mxGeometry relative="1" as="geometry" />
        </mxCell>
        <mxCell id="geifvfFEWeNei55oTGaf-28" value="" style="sketch=0;pointerEvents=1;shadow=0;dashed=0;html=1;strokeColor=none;labelPosition=center;verticalLabelPosition=bottom;verticalAlign=top;align=center;fillColor=#505050;shape=mxgraph.mscae.intune.user_group" vertex="1" parent="1">
          <mxGeometry x="-140" y="340" width="50" height="37" as="geometry" />
        </mxCell>
        <mxCell id="geifvfFEWeNei55oTGaf-31" style="edgeStyle=orthogonalEdgeStyle;rounded=0;orthogonalLoop=1;jettySize=auto;html=1;exitX=0.74;exitY=0.649;exitDx=0;exitDy=0;exitPerimeter=0;" edge="1" parent="1" source="geifvfFEWeNei55oTGaf-28" target="geifvfFEWeNei55oTGaf-19">
          <mxGeometry relative="1" as="geometry">
            <Array as="points">
              <mxPoint x="-120" y="364" />
              <mxPoint x="-120" y="528" />
            </Array>
          </mxGeometry>
        </mxCell>
        <mxCell id="geifvfFEWeNei55oTGaf-29" value="INER" style="text;strokeColor=none;align=center;fillColor=none;html=1;verticalAlign=middle;whiteSpace=wrap;rounded=0;" vertex="1" parent="1">
          <mxGeometry x="-140" y="377" width="60" height="30" as="geometry" />
        </mxCell>
        <mxCell id="geifvfFEWeNei55oTGaf-32" value="1 Registra reglas" style="text;strokeColor=none;align=center;fillColor=none;html=1;verticalAlign=middle;whiteSpace=wrap;rounded=0;fontSize=10;" vertex="1" parent="1">
          <mxGeometry x="-90" y="330" width="100" height="30" as="geometry" />
        </mxCell>
        <mxCell id="geifvfFEWeNei55oTGaf-33" value="2 Sube archivos&lt;br style=&quot;font-size: 10px;&quot;&gt;matriz especifica /global/tratamientos&lt;br style=&quot;font-size: 10px;&quot;&gt;/asignación/capacidad operativa, otros" style="text;strokeColor=none;align=left;fillColor=none;html=1;verticalAlign=middle;whiteSpace=wrap;rounded=0;fontSize=10;" vertex="1" parent="1">
          <mxGeometry x="-170" y="430" width="100" height="30" as="geometry" />
        </mxCell>
        <mxCell id="geifvfFEWeNei55oTGaf-34" value="3 Solicita ejecutar matriz de resultados" style="text;strokeColor=none;align=center;fillColor=none;html=1;verticalAlign=middle;whiteSpace=wrap;rounded=0;fontSize=10;" vertex="1" parent="1">
          <mxGeometry x="-90" y="360" width="100" height="30" as="geometry" />
        </mxCell>
        <mxCell id="geifvfFEWeNei55oTGaf-36" style="edgeStyle=orthogonalEdgeStyle;rounded=0;orthogonalLoop=1;jettySize=auto;html=1;entryX=0.022;entryY=0.432;entryDx=0;entryDy=0;entryPerimeter=0;" edge="1" parent="1" source="geifvfFEWeNei55oTGaf-5" target="geifvfFEWeNei55oTGaf-23">
          <mxGeometry relative="1" as="geometry" />
        </mxCell>
        <mxCell id="geifvfFEWeNei55oTGaf-37" value="" style="rounded=0;whiteSpace=wrap;html=1;dashed=1;fillColor=none;strokeWidth=2;" vertex="1" parent="1">
          <mxGeometry x="310" y="80" width="220" height="135" as="geometry" />
        </mxCell>
      </root>
    </mxGraphModel>
  </diagram>
</mxfile>
